HIERARCHY
ROOT Hips
{
    OFFSET 0.000000 0.000000 0.000000
    CHANNELS 6 Xposition Yposition Zposition Zrotation Xrotation Yrotation
    JOINT Spine
    {
        OFFSET -0.000000 14.517291 0.000000
        CHANNELS 3 Zrotation Xrotation Yrotation
        JOINT Spine1
        {
            OFFSET -0.000000 37.558300 0.000000
            CHANNELS 3 Zrotation Xrotation Yrotation
            JOINT Neck
            {
                OFFSET -0.000000 37.404057 3.400369
                CHANNELS 3 Zrotation Xrotation Yrotation
                JOINT Head
                {
                    OFFSET -0.000000 24.785618 -3.540803
                    CHANNELS 3 Zrotation Xrotation Yrotation
                    End Site
                    {
                        OFFSET -0.000000 35.408028 0.000000
                    }
                }
            }
            JOINT LeftShoulder
            {
                OFFSET 6.992933 33.973492 -0.192664
                CHANNELS 3 Zrotation Xrotation Yrotation
                JOINT LeftArm
                {
                    OFFSET 21.527611 0.000000 0.000000
                    CHANNELS 3 Zrotation Xrotation Yrotation
                    JOINT LeftForeArm
                    {
                        OFFSET 56.353916 0.000000 0.000000
                        CHANNELS 3 Zrotation Xrotation Yrotation
                        JOINT LeftHand
                        {
                            OFFSET 47.774071 0.000000 0.000000
                            CHANNELS 3 Zrotation Xrotation Yrotation
                            End Site
                            {
                                OFFSET 26.556021 0.000000 0.000000
                            }
                        }
                    }
                }
            }
            JOINT RightShoulder
            {
                OFFSET -7.065357 33.973492 -0.192664
                CHANNELS 3 Zrotation Xrotation Yrotation
                JOINT RightArm
                {
                    OFFSET -21.527611 0.000000 0.000000
                    CHANNELS 3 Zrotation Xrotation Yrotation
                    JOINT RightForeArm
                    {
                        OFFSET -56.353916 0.000000 0.000000
                        CHANNELS 3 Zrotation Xrotation Yrotation
                        JOINT RightHand
                        {
                            OFFSET -47.774071 0.000000 0.000000
                            CHANNELS 3 Zrotation Xrotation Yrotation
                            End Site
                            {
                                OFFSET -26.556021 0.000000 0.000000
                            }
                        }
                    }
                }
            }
        }
    }
    JOINT LeftUpLeg
    {
        OFFSET 17.704014 0.000000 0.000000
        CHANNELS 3 Zrotation Xrotation Yrotation
        JOINT LeftLeg
        {
            OFFSET -0.000000 -81.181816 0.000000
            CHANNELS 3 Zrotation Xrotation Yrotation
            JOINT LeftFoot
            {
                OFFSET -0.000000 -62.821102 0.000000
                CHANNELS 3 Zrotation Xrotation Yrotation
                JOINT LeftToeBase
                {
                    OFFSET -0.000000 -11.507608 26.556021
                    CHANNELS 3 Zrotation Xrotation Yrotation
                    End Site
                    {
                        OFFSET -0.000000 0.000000 7.081605
                    }
                }
            }
        }
    }
    JOINT RightUpLeg
    {
        OFFSET -17.704014 0.000000 0.000000
        CHANNELS 3 Zrotation Xrotation Yrotation
        JOINT RightLeg
        {
            OFFSET -0.000000 -81.181816 0.000000
            CHANNELS 3 Zrotation Xrotation Yrotation
            JOINT RightFoot
            {
                OFFSET -0.000000 -62.821102 0.000000
                CHANNELS 3 Zrotation Xrotation Yrotation
                JOINT RightToeBase
                {
                    OFFSET -0.000000 -11.507608 26.556021
                    CHANNELS 3 Zrotation Xrotation Yrotation
                    End Site
                    {
                        OFFSET -0.000000 0.000000 7.081605
                    }
                }
            }
        }
    }
}
MOTION
Frames:    6
Frame Time:    0.008333
-57.141705    148.885208    -56.144089    -5.049662    -4.439702    44.040600    -0.909112    0.091618    -1.792350    0.575036    1.402640    -0.605649    0.683216    7.219100    -19.022057    16.270502    -5.124959    -16.915630    2.229033    8.632913    -14.881259    -31.262568    23.052526    -46.430641    -5.555804    -23.988352    -118.133698    -9.468933    -31.169138    -14.281467    0.648905    11.134459    -4.268961    28.475805    14.631581    48.361515    -8.307856    8.555543    39.677345    -26.631090    2.418213    37.295189    5.981545    1.526523    -6.573056    -16.446089    45.706268    -26.121553    22.599398    -28.117275    48.166924    0.000000    0.000000    0.000000    7.066591    -32.639767    -3.955882    14.904475    33.447521    -15.040239    -11.379320    -4.035792    -18.599545    0.000000    0.000000    0.000000    
-57.208370    148.904709    -56.119698    -5.030672    -4.440487    44.157597    -0.887687    0.094609    -1.848378    0.564160    1.357507    -0.624027    0.729055    7.221626    -19.024330    16.148342    -5.124949    -16.944105    2.252323    8.660433    -14.891804    -31.306202    23.072348    -46.477058    -5.574274    -23.942141    -118.129868    -9.423723    -31.161346    -14.215586    0.661556    11.085754    -4.281173    28.506670    14.636753    48.280849    -8.267170    8.647019    39.775352    -26.655750    2.493073    37.302891    5.966291    1.537914    -6.657852    -16.346415    45.645531    -26.158548    22.649998    -28.055552    48.145115    0.000000    0.000000    0.000000    6.951054    -32.595688    -4.214354    14.891069    33.342190    -15.110352    -11.311711    -3.898293    -18.388033    0.000000    0.000000    0.000000    
-57.276989    148.922470    -56.096024    -5.022224    -4.439830    44.266739    -0.857558    0.093713    -1.885843    0.551321    1.315142    -0.636185    0.771713    7.195053    -19.022526    16.031582    -5.105253    -16.969963    2.271442    8.692983    -14.922870    -31.335339    23.069407    -46.532516    -5.588797    -23.901484    -118.134064    -9.400867    -31.150623    -14.168457    0.686401    11.092906    -4.318752    28.536596    14.548613    48.239464    -8.191119    8.773623    39.861439    -26.707893    2.570865    37.343384    5.945739    1.534108    -6.709676    -16.225521    45.606030    -26.258755    22.762842    -27.941427    48.181496    0.000000    0.000000    0.000000    6.834836    -32.560482    -4.489168    14.876725    33.208847    -15.267722    -11.227514    -3.695560    -18.053255    0.000000    0.000000    0.000000    
-57.342194    148.935699    -56.073509    -5.019811    -4.436285    44.369736    -0.812205    0.072526    -1.914243    0.517374    1.296715    -0.645159    0.788496    7.165011    -19.036430    15.970051    -5.067112    -17.002625    2.307396    8.707458    -14.949877    -31.329140    23.108076    -46.614883    -5.579974    -23.920050    -118.135742    -9.356449    -31.162510    -14.136872    0.725140    11.075808    -4.337545    28.517218    14.529605    48.173611    -8.197376    8.826696    39.933121    -26.724758    2.607855    37.413746    5.917148    1.533579    -6.738960    -16.083857    45.558266    -26.366671    22.911327    -27.819344    48.213566    0.000000    0.000000    0.000000    6.709192    -32.531746    -4.813994    14.858850    33.092533    -15.351509    -11.235656    -3.489836    -17.726908    0.000000    0.000000    0.000000    
-57.396858    148.944565    -56.046772    -5.016078    -4.437593    44.472012    -0.759437    0.054842    -1.930273    0.489166    1.267598    -0.649985    0.787712    7.156236    -19.035547    15.930325    -5.052742    -17.010868    2.331933    8.715362    -14.999072    -31.297823    23.186846    -46.695618    -5.544585    -24.016973    -118.136017    -9.381294    -31.198698    -14.149672    0.731615    11.050214    -4.360477    28.534885    14.509916    48.087608    -8.193326    8.890622    40.001045    -26.754272    2.655112    37.454193    5.886346    1.545860    -6.810589    -15.971134    45.494133    -26.523037    23.129726    -27.644791    48.341988    0.000000    0.000000    0.000000    6.572292    -32.492680    -5.162020    14.864085    32.984421    -15.467934    -11.225146    -3.363203    -17.399626    0.000000    0.000000    0.000000    
-57.458496    148.947006    -56.022408    -5.022347    -4.448706    44.562111    -0.688230    0.050258    -1.937376    0.454593    1.237916    -0.651791    0.817215    7.129225    -19.038004    15.854665    -5.043399    -17.031155    2.360610    8.703067    -15.049946    -31.275331    23.251251    -46.756981    -5.501078    -24.097580    -118.145142    -9.437458    -31.203192    -14.200397    0.738036    11.009097    -4.383482    28.539377    14.510661    48.003628    -8.197322    8.908929    40.070415    -26.763151    2.670212    37.481514    5.875431    1.557262    -6.883508    -15.891156    45.433990    -26.661694    23.316040    -27.563395    48.518440    0.000000    0.000000    0.000000    6.437768    -32.461193    -5.503017    14.926446    32.895401    -15.694048    -11.219716    -3.274327    -16.994137    0.000000    0.000000    0.000000    
